# xmcd
#
# Track frame offsets: 
#        150
#        12658
#        15250
#        31728
#        44473
#        57410
#        71119
#        74252
#        90398
#        109791
#        121879
#        140186
#        149725
#        156480
#        177707
#        184284
#        195392
#        211778
#        219235
#
# Disc length: 2942 seconds
#
# Revision: 0
# Processed by: cddbd v1.5.2PL0 Copyright (c) Steve Scherf et al.
# Submitted via: ExactAudioCopy v0.99pb3
#
DISCID=200b7c13
DTITLE=Jukka Itkonen - Joko teitä on rakastettu
DYEAR=2007
DGENRE=Folk
TTITLE0=Ihminen on vuoria täynnä
TTITLE1=Päivä elämässä
TTITLE2=Lauantai
TTITLE3=Perhealbumi
TTITLE4=Linnunrata, maitotie
TTITLE5=Joko teitä on rakastettu?
TTITLE6=Matkailijan espanjaa
TTITLE7=Talviyön lyhty
TTITLE8=Romukauppias purkaa sydäntään
TTITLE9=Rantatiellä 
TTITLE10=Kanuuna
TTITLE11=Luoja, Aatami ja Oppenheimer
TTITLE12=Lentokone piirtää taivaalle vanaa
TTITLE13=Matkaa huomiseen 
TTITLE14=Lehtevänmiehen talossa
TTITLE15=Humbold on se!
TTITLE16=Miljoona pyykkipoikaa
TTITLE17=Unen käsi tyynynäsi
TTITLE18=Päivä on pulkassa
EXTD=
EXTT0=
EXTT1=
EXTT2=
EXTT3=
EXTT4=
EXTT5=
EXTT6=
EXTT7=
EXTT8=
EXTT9=
EXTT10=
EXTT11=
EXTT12=
EXTT13=
EXTT14=
EXTT15=
EXTT16=
EXTT17=
EXTT18=
PLAYORDER=
